<?xml version="1.0" encoding="utf-8"?>
<!-- Generator: Adobe Illustrator 18.0.0, SVG Export Plug-In . SVG Version: 6.00 Build 0)  -->
<!DOCTYPE svg PUBLIC "-//W3C//DTD SVG 1.1//EN" "http://www.w3.org/Graphics/SVG/1.1/DTD/svg11.dtd">
<svg version="1.1" id="Layer_1" xmlns="http://www.w3.org/2000/svg" xmlns:xlink="http://www.w3.org/1999/xlink" x="0px" y="0px"
	 viewBox="0 0 763.7 768" enable-background="new 0 0 763.7 768" xml:space="preserve">
<g>
	<polygon fill="#29ABE2" points="417.8,433 391.8,433 391.8,378 482.8,378 482.8,442 549.8,442 549.8,480 591.8,480 591.8,430.5 
		487.8,351.2 487.8,283 361.8,283 361.8,480 417.8,480 	"/>
	<polygon fill="#29ABE2" points="653.8,319 596.8,319 596.8,283 551.8,283 551.8,326.3 653.8,405.4 	"/>
	<path fill="#29ABE2" d="M651.8,114c-72.1-72.1-168-111.8-270-111.8S184,41.9,111.8,114C39.7,186.1,0,282,0,384
		s39.7,197.9,111.8,270c72.1,72.1,168,111.8,270,111.8s197.9-39.7,270-111.8c72.1-72.1,111.8-168,111.8-270S724,186.1,651.8,114z
		 M381.8,27.3C496.1,27.3,598,81,663.5,165H100.2C165.6,81,267.5,27.3,381.8,27.3z M381.7,741c-78.8,0-151.9-25.4-210.9-68.8V283
		h-61v331.7c-53-62.3-85-143-85-230.9c0-56.1,12.8-108.8,36-156.8h642C726,275,739,327.8,739,383.9c0,56.6-13.3,110.1-36.8,158.1
		H295.8V283h-61v257.5V603h428.6C598,687,496,741,381.7,741z"/>
</g>
</svg>
